<svg xmlns="http://www.w3.org/2000/svg" xmlns:xlink="http://www.w3.org/1999/xlink" viewBox="0 0 240 44.35"><defs><style>.cls-1{fill:#003175;}.cls-2{fill:#fff;}.cls-3{fill:url(#RGF_Blue_Gradation_1);}.cls-4{fill:#4d6470;}.cls-5{fill:#666;}</style><linearGradient id="RGF_Blue_Gradation_1" x1="111.19" y1="35.9" x2="119.17" y2="39.62" gradientUnits="userSpaceOnUse"><stop offset="0" stop-color="#54c2f0"/><stop offset="0.03" stop-color="#49b9eb"/><stop offset="0.12" stop-color="#219ada"/><stop offset="0.2" stop-color="#0987cf"/><stop offset="0.25" stop-color="#0080cb"/><stop offset="0.4" stop-color="#0068b6"/><stop offset="0.64" stop-color="#005bab"/><stop offset="1" stop-color="#004da0"/></linearGradient></defs><title>アセット 11</title><g id="レイヤー_2" data-name="レイヤー 2"><g id="レイヤー_1-2" data-name="レイヤー 1"><rect class="cls-1" width="44.35" height="44.35" rx="8.78" ry="8.78"/><path class="cls-2" d="M22.18,4.39a13.5,13.5,0,0,0-5.93,1.38V3.4h-1v2.9a13.84,13.84,0,0,0-2.5,1.91V3.4h-1V9.23a14.61,14.61,0,0,0,0,18.88v13h1V29.14a14,14,0,0,0,2.5,1.9v10h1v-9.5A13.39,13.39,0,0,0,22.18,33,14.08,14.08,0,0,0,36,18.67,14.08,14.08,0,0,0,22.18,4.39M11.81,26.52a13.64,13.64,0,0,1,0-15.7Zm1-16.93a12.93,12.93,0,0,1,2.5-2.16V29.89a13,13,0,0,1-2.5-2.15Zm3.47-2.74a12.51,12.51,0,0,1,5.93-1.5A13.11,13.11,0,0,1,35,18.67,13.1,13.1,0,0,1,22.18,32a12.43,12.43,0,0,1-5.93-1.5Z"/><path class="cls-1" d="M108.94,27.6c-4.59,0-5.48-1.18-5.48-4.44V11.35H99.61V9.93h3.85V5.78H105V9.93h4.83v1.42H105V22.78c0,2.34,0,3.43,3.73,3.43"/><path class="cls-1" d="M132.2,19.08c0,5.24,1.48,7.13,6.1,7.13,1.42,0,5.3,0,5.48-4.14h1.54c-.44,5.12-4.56,5.54-7,5.54-5.48,0-7.61-2.46-7.61-8.76,0-5.6,1.36-9.15,7.49-9.15,7.14,0,7.14,5,7.14,9.39Zm11.58-1.39c.06-6-2.75-6.6-5.51-6.6-5,0-5.8,2.66-6.07,6.6Z"/><path class="cls-1" d="M172.74,14.73c-.06-1.57-.09-3.64-5.21-3.64-4.47,0-5.21,1.75-5.21,3.7,0,2.16,1.13,2.43,3.26,2.75l5,.77c2.46.38,4.09,1.16,4.09,4.35,0,4.77-4.83,4.94-7.13,4.94-6.93,0-7-3.67-7-5.71h1.54c0,2.1,0,4.32,5.6,4.32,3.32,0,5.48-.83,5.48-3.61,0-2.37-1.15-2.72-3.43-3l-4.56-.65c-2-.27-4.35-.74-4.35-4.14,0-2.37.86-5.06,6.81-5.06,6.63,0,6.66,3.61,6.66,5Z"/><path class="cls-1" d="M60.07,9.69c-4,0-4.91,1.63-5.63,2.81V9.93H52.9v21.4h1.54v-6.6c.56,1.15,1.39,2.87,5.74,2.87,6.19,0,6.6-4.77,6.6-9.44,0-5.48-1.36-8.47-6.72-8.47m0,16.49c-3.62,0-5.36-1.27-5.6-6.12V17.52c.19-4.49,1.48-6.41,5.63-6.41,3.79,0,5.21,1.81,5.21,7.37,0,4.8-.71,7.7-5.24,7.7"/><path class="cls-1" d="M77.77,9.69c-3.85,0-6.81,1.1-6.87,5.27h1.57c0-3.29,2.43-3.88,5.18-3.88,3.58,0,5.15.56,5.15,3.49,0,2.49-.8,2.55-2.1,2.61l-5.27.3c-4.17.24-5.18,2.84-5.18,5.24,0,4.5,3.76,4.88,6.51,4.88,4.55,0,5.52-1.56,6-2.52v2.28h1.48V15.23c0-3.08-.3-5.54-6.48-5.54m-1,16.55c-3.32,0-5-.77-5-3.37,0-2,.68-3.91,4.09-4.09l5.3-.3a2.4,2.4,0,0,0,1.63-.62v3c0,2.81-.83,5.36-6,5.36"/><path class="cls-1" d="M95.77,9.69h-.42a5.28,5.28,0,0,0-4.71,2.51V9.93H89.13V27.37h1.51V18.19c0-2.37.71-7.08,4.71-7.08h1.81V9.69H95.77"/><path class="cls-1" d="M156.94,9.69h-.42a5.28,5.28,0,0,0-4.71,2.51V9.93H150.3V27.37h1.51V18.19c0-2.37.71-7.08,4.71-7.08h1.81V9.69h-1.38"/><rect class="cls-1" x="108.7" y="26.21" width="1.09" height="1.39"/><path class="cls-1" d="M121.82,9.71h0c-3.15,0-4.92,0-6.48,2.24v-2h-1.54V27.37h1.54v-10c.13-2,.78-4.83,2.9-5.84a6.78,6.78,0,0,1,1.65-.38H120c.33,0,.68,0,1.05,0,3.85,0,4.62,1.66,4.62,4.8V27.37h1.51V15.49c0-2.09,0-5.55-5.41-5.79"/><rect class="cls-1" x="235.45" y="5.78" width="1.51" height="2.7"/><rect class="cls-1" x="238.49" y="5.78" width="1.51" height="2.7"/><path class="cls-1" d="M187,11.2a22.49,22.49,0,0,0,1.3-2.71l.16-.39-1.63-.27,0,.1a20.49,20.49,0,0,1-6.62,9l-.09.08.88,1.32.11-.09a21.6,21.6,0,0,0,5-5.49h8.12a20,20,0,0,1-4.07,8.52c-2.62,3.17-5.83,4.25-8.91,4.94l-.16,0,.65,1.55.11,0c3-.72,6.71-2,9.48-5.32a22.88,22.88,0,0,0,4.75-11.05l0-.15Z"/><rect class="cls-1" x="201.56" y="8.97" width="13.83" height="1.54"/><path class="cls-1" d="M200.1,14.37v1.52H215c-1.28,8.24-6.84,9.53-12,10.08l-.15,0,.39,1.6h.12c7.21-.83,12.23-3.37,13.24-13.05l0-.15Z"/><path class="cls-1" d="M220.8,9.73v1.56h14.36c-.25,3.46-1,12.15-12,14.55l-.15,0,.53,1.53.11,0c5.14-1.08,8.84-3.77,11-8a24.58,24.58,0,0,0,2.28-9.49V9.73Z"/><path class="cls-3" d="M116.32,32.09c-2.19,0-5.2,1.33-5.2,5.52v4.63c0,1.07,3,1.07,3,0V37.46a3.2,3.2,0,0,1,3-3.49c1.37,0,2.48.67,2.48,2.66,0,.5,1,.5,1,0C120.53,33.26,118.67,32.09,116.32,32.09Z"/><path class="cls-4" d="M123.5,42.81h-1.09c-.1,0-.13-.06-.18-.13L121,41h-.12l-.79,0v1.76c0,.07-.07.13-.17.13H119c-.1,0-.18-.06-.18-.13V38.22c0-.13.11-.17.29-.19a16.64,16.64,0,0,1,1.75-.08c1.37,0,2.57.36,2.57,1.46v.06c0,.69-.47,1.12-1.2,1.32l1.4,1.89C123.64,42.75,123.6,42.81,123.5,42.81Zm-1.34-3.4c0-.49-.45-.69-1.34-.69l-.79,0V40.2l.79,0c.92,0,1.34-.18,1.34-.75Z"/><path class="cls-4" d="M128.28,42.77a11.52,11.52,0,0,1-1.69.09c-1.16,0-2.06-.23-2.06-1.33V39.27c0-1.1.9-1.33,2.06-1.33a11.49,11.49,0,0,1,1.69.09c.13,0,.18,0,.18.14v.41c0,.07-.08.13-.18.13h-1.82c-.52,0-.7.13-.7.56V40h2.42c.1,0,.18.06.18.13v.47c0,.07-.08.13-.18.13h-2.42v.84c0,.43.19.56.7.56h1.82c.1,0,.18.06.18.13v.41C128.46,42.73,128.41,42.76,128.28,42.77Z"/><path class="cls-4" d="M133.32,42.76a9.08,9.08,0,0,1-1.41.1c-1.07,0-2.52-.38-2.52-2v-1c0-1.63,1.45-2,2.52-2a9.19,9.19,0,0,1,1.41.1c.12,0,.2.06.2.15v.43c0,.08-.05.14-.2.14-.31,0-.92-.05-1.39-.05-.75,0-1.29.29-1.29,1.21v1c0,.9.54,1.21,1.29,1.21.47,0,1.08,0,1.39-.05.14,0,.2.05.2.14v.43C133.52,42.7,133.44,42.73,133.32,42.76Z"/><path class="cls-4" d="M139.21,42.81h-1.09c-.1,0-.13-.06-.18-.13L136.66,41h-.12l-.79,0v1.76c0,.07-.07.13-.17.13h-.89c-.1,0-.18-.06-.18-.13V38.22c0-.13.11-.17.29-.19a16.65,16.65,0,0,1,1.75-.08c1.37,0,2.57.36,2.57,1.46v.06c0,.69-.47,1.12-1.2,1.32l1.4,1.89C139.34,42.75,139.31,42.81,139.21,42.81Zm-1.34-3.4c0-.49-.45-.69-1.34-.69l-.79,0V40.2l.79,0c.92,0,1.34-.18,1.34-.75Z"/><path class="cls-4" d="M144.47,42.75c-.31,0-1.43.11-2,.11-1.43,0-2.43-.44-2.43-1.82V38.12c0-.07.08-.12.18-.12h.88c.1,0,.18.05.18.12V41c0,.74.23,1.08,1.19,1.08.36,0,.9,0,1.23-.05V38.12c0-.07.07-.12.17-.12h.88c.1,0,.18.05.18.12v4.24C145,42.63,144.79,42.72,144.47,42.75Z"/><path class="cls-4" d="M147.26,42.81h-.88c-.1,0-.18-.06-.18-.13V38.12c0-.07.08-.12.18-.12h.88c.1,0,.18.05.18.12v4.56C147.44,42.75,147.36,42.81,147.26,42.81Z"/><path class="cls-4" d="M152.82,38.75h-1.56v3.93c0,.07-.08.13-.18.13h-.88c-.1,0-.18-.06-.18-.13V38.75h-1.56c-.1,0-.18,0-.18-.12v-.51c0-.07.08-.12.18-.12h4.36c.1,0,.18.05.18.12v.51C153,38.7,152.92,38.75,152.82,38.75Z"/><path class="cls-5" d="M53,38.27h2.24a1.37,1.37,0,0,1,1,.39,1.48,1.48,0,0,1,.39,1.09,1.44,1.44,0,0,1-.36,1.06,1.4,1.4,0,0,1-1,.36h-1.6v1.88H53Zm.64.53v1.85H55.1a.83.83,0,0,0,.62-.22.91.91,0,0,0,.25-.67,1,1,0,0,0-.22-.7.87.87,0,0,0-.64-.25Z"/><path class="cls-5" d="M58.28,38.25h2.35a1.25,1.25,0,0,1,.92.36,1.58,1.58,0,0,1,0,2,1,1,0,0,1-.56.25L62.08,43h-.7l-1-2.07H58.92V43h-.64Zm.64.53v1.65h1.65a.65.65,0,0,0,.48-.2.84.84,0,0,0,.2-.62A.83.83,0,0,0,61,39a.73.73,0,0,0-.53-.22Z"/><path class="cls-5" d="M64,38.8a2,2,0,0,1,2.85,0,2.88,2.88,0,0,1,0,3.69,2,2,0,0,1-2.85,0,2.88,2.88,0,0,1,0-3.69Zm.48.36a2.55,2.55,0,0,0,0,3,1.29,1.29,0,0,0,1.9,0,2.55,2.55,0,0,0,0-3,1.29,1.29,0,0,0-1.9,0Z"/><path class="cls-5" d="M69.14,38.27h1.68a1.94,1.94,0,0,1,1.43.59,2.51,2.51,0,0,1,.62,1.85,2.46,2.46,0,0,1-.64,1.82,1.89,1.89,0,0,1-1.4.53H69.14Zm.64.53v3.72h1a1.17,1.17,0,0,0,.87-.34,2,2,0,0,0,.53-1.48,2.05,2.05,0,0,0-.5-1.51,1.23,1.23,0,0,0-.9-.39Z"/><path class="cls-5" d="M74.53,38.27h.64v3.36a.87.87,0,0,0,.25.64,1.46,1.46,0,0,0,1.79,0,.87.87,0,0,0,.25-.64V38.27h.64v3.39a1.36,1.36,0,0,1-.39,1,2.41,2.41,0,0,1-2.8,0,1.36,1.36,0,0,1-.39-1Z"/><path class="cls-5" d="M80.43,38.75a1.86,1.86,0,0,1,1.37-.53,1.78,1.78,0,0,1,1.32.48A1.84,1.84,0,0,1,83.65,40H83a1.42,1.42,0,0,0-.36-.9,1.11,1.11,0,0,0-.81-.34,1.23,1.23,0,0,0-.9.39,2.6,2.6,0,0,0,0,3.08,1.22,1.22,0,0,0,.9.36,1.17,1.17,0,0,0,.87-.31,1.51,1.51,0,0,0,.39-1.12h.67a2.1,2.1,0,0,1-.56,1.48,2.12,2.12,0,0,1-2.74-.06,2.57,2.57,0,0,1-.7-1.9A2.61,2.61,0,0,1,80.43,38.75Z"/><path class="cls-5" d="M85.29,38.27h3.08v.53H85.93v1.48H88.2v.53H85.93v1.71h2.57v.53H85.29Z"/><path class="cls-5" d="M90.06,38.27h1.68a1.94,1.94,0,0,1,1.43.59,2.51,2.51,0,0,1,.62,1.85,2.46,2.46,0,0,1-.64,1.82,1.89,1.89,0,0,1-1.4.53H90.06Zm.64.53v3.72h1a1.17,1.17,0,0,0,.87-.34,2,2,0,0,0,.53-1.48,2.05,2.05,0,0,0-.5-1.51,1.23,1.23,0,0,0-.9-.39Z"/><path class="cls-5" d="M98.32,38.27h2.24a1.25,1.25,0,0,1,.92.36,1.21,1.21,0,0,1,.34.9,1,1,0,0,1-.31.76,1.06,1.06,0,0,1-.42.25,1.34,1.34,0,0,1,.53.31,1.14,1.14,0,0,1,.34.84,1.41,1.41,0,0,1-.42,1,1.37,1.37,0,0,1-1,.34H98.32Zm.64.53v1.48h1.51a.65.65,0,0,0,.48-.2.79.79,0,0,0,.22-.59A.73.73,0,0,0,101,39a.57.57,0,0,0-.42-.17Zm0,2v1.71h1.43a.87.87,0,0,0,.64-.22.92.92,0,0,0,0-1.23.91.91,0,0,0-.67-.25Z"/><path class="cls-5" d="M103.18,38.27h.67l1.37,2.18,1.37-2.18h.67l-1.71,2.66v2.13h-.64V40.93Z"/></g></g></svg>