<svg xmlns="http://www.w3.org/2000/svg" viewBox="0 0 218 200.21"><defs><style>.cls-1{isolation:isolate;}.cls-2,.cls-3,.cls-6{fill:none;}.cls-3,.cls-6{stroke:#003175;stroke-miterlimit:10;}.cls-3{stroke-width:0.41px;}.cls-4{fill:#eeeeef;mix-blend-mode:multiply;}.cls-5{fill:#003175;}.cls-6{stroke-width:1.38px;}</style></defs><title>アセット 10</title><g class="cls-1"><g id="レイヤー_2" data-name="レイヤー 2"><g id="レイヤー_1-2" data-name="レイヤー 1"><path class="cls-2" d="M175.45,118.65a66.41,66.41,0,1,1-5.24-25.93A66.41,66.41,0,0,1,175.45,118.65Z"/><circle class="cls-3" cx="108.83" cy="118.65" r="44.22"/><circle class="cls-4" cx="108.83" cy="44.22" r="44.22"/><path class="cls-5" d="M96.41,116.61a5.94,5.94,0,0,1-.65,2.92,4.92,4.92,0,0,0-.56-.31,5.81,5.81,0,0,0,.6-2.69Zm.44-2.29.95.07c0,.08-.07.13-.21.15v10.15h-.74Zm1.72,3.62a12.17,12.17,0,0,0-.8-1.64l.51-.26a9,9,0,0,1,.83,1.58Zm3.92.15h3.12v.64H98.69v-.64h3v-.82H99.52v-.58h2.18v-.76H99.08v-.6h2.63v-1l1,.07c0,.08-.07.13-.22.16v.78h2.73v.6h-2.73v.76h2.27v.58h-2.27Zm2.11,1.38v4.43c0,.73-.29.8-1.84.8a2.54,2.54,0,0,0-.23-.65l.82,0c.46,0,.51,0,.51-.18v-1h-3.47v1.78h-.73v-5.22Zm-.75.61h-3.47v.84h3.47Zm-3.47,2.26h3.47v-.85h-3.47Z"/><path class="cls-5" d="M114.22,116.12v1.25h2.25V118h-5.18v-.66h2.23v-1.25h-1.79v-.65h1.79v-1.13l.92.06c0,.08-.07.13-.21.15v.93H116v.65Zm.19,3.7a11.33,11.33,0,0,0,.67-1.66l.79.27c0,.07-.11.1-.23.1a12.6,12.6,0,0,1-.71,1.38h1.34v.66h-2.05v1.3h1.91v.66h-1.91v2.2h-.7v-2.2h-1.92v-.66h1.92v-1.3h-2.07v-.66h3.17Zm-1.83,0a5.81,5.81,0,0,0-.51-1.54l.58-.16a6.12,6.12,0,0,1,.54,1.51Zm8.2-.74.47.17a.44.44,0,0,1-.08.15,9.59,9.59,0,0,1-1.23,3.36,4.92,4.92,0,0,0,1.7,1.28,2.9,2.9,0,0,0-.53.65,5.4,5.4,0,0,1-1.61-1.31,5.87,5.87,0,0,1-1.31,1.22,2.45,2.45,0,0,0-.51-.5A5.27,5.27,0,0,0,119,122.8a9.2,9.2,0,0,1-1.26-2.65l.6-.16a8.31,8.31,0,0,0,1.06,2.17,8.4,8.4,0,0,0,.88-2.37h-2.85v4.93h-.71v-9.86h4.34v2.8c0,.8-.4.8-1.92.8a2.47,2.47,0,0,0-.22-.65h.78c.61,0,.66,0,.66-.18v-2.1h-2.93v3.59h3.16Z"/><circle class="cls-4" cx="44.22" cy="155.99" r="44.22"/><circle class="cls-4" cx="173.78" cy="155.99" r="44.22"/><path class="cls-6" d="M130.15,181.78a67,67,0,0,1-42.64,0"/><polygon class="cls-5" points="128 178.88 134.76 180.03 130.38 185.31 128 178.88"/><polygon class="cls-5" points="89.66 178.88 82.9 180.03 87.28 185.31 89.66 178.88"/><path class="cls-6" d="M43.28,105.65A67,67,0,0,1,64.6,68.72"/><polygon class="cls-5" points="46.87 105.24 42.49 110.52 40.11 104.08 46.87 105.24"/><polygon class="cls-5" points="66.04 72.03 68.42 65.6 61.66 66.76 66.04 72.03"/><path class="cls-6" d="M174,105.65a67,67,0,0,0-21.32-36.93"/><polygon class="cls-5" points="177.13 104.08 174.75 110.52 170.37 105.24 177.13 104.08"/><polygon class="cls-5" points="155.58 66.76 148.82 65.6 151.2 72.03 155.58 66.76"/><path class="cls-5" d="M99.53,31.93c0,.1-.1.16-.25.18l0,.35c.13,1.68.85,7.25,5.39,9.32a2.66,2.66,0,0,0-.61.67c-3.22-1.53-4.56-4.77-5.12-7.24h0a10.09,10.09,0,0,1-5,7.23,2.92,2.92,0,0,0-.64-.61c5-2.49,5-8.36,5.09-10Z"/><path class="cls-5" d="M113.63,36c.43.39,1.62,1.67,1.9,2l-.53.68c-.25-.39-.88-1.18-1.37-1.77v5.63h-.78V36.41a13.52,13.52,0,0,1-2,3.85,4.24,4.24,0,0,0-.45-.74,12.89,12.89,0,0,0,2.35-4.69h-2.08v-.76h2.21V31.45l1,.07c0,.08-.08.14-.24.16v2.4h1.86v.76h-1.86Zm8.07-1.89v.76h-1.34V41.4c0,1.09-.39,1.16-2.64,1.16a4.62,4.62,0,0,0-.3-.86l1.3,0c.78,0,.82,0,.82-.31V35.84a15.33,15.33,0,0,1-3.79,4.69,2.81,2.81,0,0,0-.55-.64,13.69,13.69,0,0,0,4-5h-3.45v-.76h3.76V31.47l1.05.06c0,.1-.07.14-.24.17v2.39Z"/><path class="cls-5" d="M98.3,46.81a5.65,5.65,0,0,0,0,8.21v0h-.54a5.91,5.91,0,0,1,0-8.3h.54Z"/><path class="cls-5" d="M105.05,53.79a17.8,17.8,0,0,0,1.87-.13c0,.2,0,.45,0,.64-.59.06-1.48.1-1.85.1h-2.23c-1.35,0-2-.59-2-1.87v-5.2l.88.05c0,.09-.08.14-.24.16v2.91a27.3,27.3,0,0,0,4.43-1.77l.46.62a.21.21,0,0,1-.11,0l-.12,0a34.79,34.79,0,0,1-4.65,1.76v1.49c0,.9.44,1.24,1.36,1.24Z"/><path class="cls-5" d="M114.35,51.78a32.28,32.28,0,0,0-3.13-1.46v4.46h-.67V47l.9.05c0,.1-.08.16-.23.19v2.61l.13-.19a31.14,31.14,0,0,1,3.36,1.49Z"/><path class="cls-5" d="M116.7,55a5.65,5.65,0,0,0,0-8.21v0h.54a5.91,5.91,0,0,1,0,8.3h-.54Z"/><path class="cls-5" d="M33.32,145.25v.67H28.76v-.67Zm-.42,4.87v3.51H30v.56h-.72v-4.07Zm-3.58-2.59v-.66h3.59v.66Zm0,1.62v-.66h3.59v.66Zm3.56-5.49v.66H29.4v-.66Zm-.69,7.14H30v2.15h2.16Zm2.89-6.44v.74a3.54,3.54,0,0,1-1.55,3.15,3.14,3.14,0,0,0-.58-.54,2.86,2.86,0,0,0,1.37-2.62v-1.47h3.76v3c0,.26,0,.31.25.31H39c.23,0,.26-.16.29-1.35a1.93,1.93,0,0,0,.68.3c-.06,1.41-.26,1.75-.88,1.75h-.86c-.7,0-.91-.21-.91-1v-2.29Zm3.68,4.09.52.21a.27.27,0,0,1-.1.13,7.53,7.53,0,0,1-2.06,3.45A7.6,7.6,0,0,0,40,153.62a3.7,3.7,0,0,0-.53.69,8.19,8.19,0,0,1-2.95-1.54,9.13,9.13,0,0,1-3.1,1.55,2.58,2.58,0,0,0-.44-.7,8.52,8.52,0,0,0,3-1.38,8.22,8.22,0,0,1-1.77-2.77l.72-.23a7,7,0,0,0,1.65,2.49,6.77,6.77,0,0,0,1.68-2.52H33.49v-.74h5.12Z"/><path class="cls-5" d="M47.28,147.55A13.89,13.89,0,0,1,46,149.46a6.68,6.68,0,0,0-.39-.78,16.29,16.29,0,0,0,2.63-5.38l.94.3c0,.08-.12.13-.27.13A23.5,23.5,0,0,1,48,146.1l.27.08c0,.08-.08.13-.23.15v8h-.78Zm9.71-1v.72H50v1.89a10,10,0,0,1-1.11,5.12,3,3,0,0,0-.6-.5,9,9,0,0,0,1-4.63v-2.59Zm-8-2.2h2v-1.06l1,.07c0,.07-.07.13-.23.16v.83h2.36v-1.06l1,.07c0,.07-.07.13-.23.16v.83h2v.72h-2v1h-.76v-1H51.79v1H51v-1H49Zm7.59,3.89v5.24c0,.79-.43.8-1.84.8a1.89,1.89,0,0,0-.23-.62h.74c.54,0,.61,0,.61-.19v-1.19H54v1.92h-.68v-1.92H51.49v2h-.7v-6Zm-3.28.64H51.49V150h1.84Zm-1.84,2.8h1.84v-1.1H51.49Zm4.4-2.8H54V150H55.9ZM54,151.73H55.9v-1.1H54Z"/><path class="cls-5" d="M33.1,158.59a5.65,5.65,0,0,0,0,8.21v0h-.54a5.91,5.91,0,0,1,0-8.3h.54Z"/><path class="cls-5" d="M38,162.78v2c0,.47.22.79.87.79h1.64a8.6,8.6,0,0,0,1.08-.06c0,.17,0,.47,0,.61a8.92,8.92,0,0,1-1.1.05H38.84c-1.09,0-1.47-.57-1.47-1.39v-2H34.82v-.59h2.55V160H35.46v-.59h5.75V160H38v2.2h4v.59Z"/><path class="cls-5" d="M50.85,159.29a.24.24,0,0,1-.25.11,14,14,0,0,1-6,7.11,2.86,2.86,0,0,0-.5-.47A13.09,13.09,0,0,0,50,159Z"/><path class="cls-5" d="M52.66,166.8a5.65,5.65,0,0,0,0-8.21v0h.54a5.91,5.91,0,0,1,0,8.3h-.54Z"/><path class="cls-5" d="M158.43,146.72c.87-.23,2.14-.6,3.4-1l.09.64c-1.1.36-2.24.73-3,.94a.24.24,0,0,1-.14.19ZM163,153a.26.26,0,0,1-.26.07,19.79,19.79,0,0,1-3.59,1.28c-.14-.16-.39-.44-.55-.58a14.72,14.72,0,0,0,3.54-1.19Zm-3.54-9.47a14.42,14.42,0,0,1,2.54.94l-.36.63a15.38,15.38,0,0,0-2.54-1Zm.64,8.88v-4.89h7.84v4.89Zm.78-4.32V149h6.26v-.87Zm0,1.42v.88h6.26v-.88Zm0,1.43v.91h6.26v-.91Zm5.1-6.17c.29,1,1,1.89,3.47,2.27a2.41,2.41,0,0,0-.43.66c-2.1-.37-3-1.19-3.42-2.1-.43.91-1.29,1.52-3.14,1.89a2,2,0,0,0-.37-.57c2-.36,2.75-1,3-2.14h-1.37a6.74,6.74,0,0,1-1.1,1.06,2.09,2.09,0,0,0-.61-.41,5.37,5.37,0,0,0,1.85-2.2l.9.13c0,.08-.08.13-.23.14a4.92,4.92,0,0,1-.36.63h4.49l.48.06a6.46,6.46,0,0,1-1.25,1.8l-.64-.24a6.08,6.08,0,0,0,.78-1Zm2.48,9.58A25.86,25.86,0,0,0,165,153l.66-.42a36.52,36.52,0,0,1,3.66,1.31Z"/><path class="cls-5" d="M181.37,150.14v3.05h4.82v.72H175.83v-.72h4.7v-3.05h-4.16v-.72h4.16v-1.67H178v-.68a17.32,17.32,0,0,1-2,1.36,4.83,4.83,0,0,0-.5-.63,14,14,0,0,0,5.08-4.63l1.17.07a.28.28,0,0,1-.24.18,15.24,15.24,0,0,0,5.15,4.22,4.45,4.45,0,0,0-.54.7A16.89,16.89,0,0,1,181,144a13.76,13.76,0,0,1-2.92,3h6v.73h-2.66v1.67h4.26v.72ZM178.55,153a8.25,8.25,0,0,0-1.12-2.26l.66-.25a7.8,7.8,0,0,1,1.17,2.21Zm6.13-2.15c0,.07-.13.11-.26.1a17.86,17.86,0,0,1-1.37,2.08l-.6-.3a14.35,14.35,0,0,0,1.34-2.27Z"/><path class="cls-5" d="M162.31,158.59a5.65,5.65,0,0,0,0,8.21v0h-.54a5.91,5.91,0,0,1,0-8.3h.54Z"/><path class="cls-5" d="M170.88,160.91a.31.31,0,0,1-.08.12,14.22,14.22,0,0,1-.71,4.82,1.22,1.22,0,0,1-1.17.64,9.48,9.48,0,0,1-1.6-.21,3,3,0,0,0,0-.63,9.32,9.32,0,0,0,1.56.22.67.67,0,0,0,.69-.42,13.63,13.63,0,0,0,.58-4.05h-2.86a8.16,8.16,0,0,1-2.95,5.11,3.12,3.12,0,0,0-.51-.39,7.38,7.38,0,0,0,2.78-4.72h-2.46v-.6h2.59a17.35,17.35,0,0,0,.21-1.95l.88.07c0,.1-.09.15-.22.16-.05.65-.1,1.14-.2,1.71h2.89l.14-.05Z"/><path class="cls-5" d="M179.76,160.89a.2.2,0,0,1-.16.08,13.14,13.14,0,0,1-2.16,2.12l.14,0a.23.23,0,0,1-.2.13v3.4h-.63v-3.1a17.17,17.17,0,0,1-3.19,1.7c0-.06-.34-.43-.41-.5a13.74,13.74,0,0,0,5.44-3.56h-4.52v-.58h5.11l.1-.06Zm-1.47-.7a17,17,0,0,0-2.94-1.08l.29-.52a16.65,16.65,0,0,1,3,1.05Zm.06,2.87A18.46,18.46,0,0,1,181,164.7l-.46.48a17.42,17.42,0,0,0-2.56-1.68Z"/><path class="cls-5" d="M182.59,166.8a5.65,5.65,0,0,0,0-8.21v0h.54a5.91,5.91,0,0,1,0,8.3h-.54Z"/></g></g></g></svg>