<svg xmlns="http://www.w3.org/2000/svg" viewBox="0 0 1000 10"><defs><style>.cls-1{fill:#006ab7;}.cls-2{fill:#007bc5;}.cls-3{fill:#0098d8;}</style></defs><title>アセット 3</title><g id="レイヤー_2" data-name="レイヤー 2"><g id="レイヤー_1-2" data-name="レイヤー 1"><rect class="cls-1" width="109.05" height="10"/><rect class="cls-2" x="109.05" width="40.69" height="10"/><rect class="cls-3" x="149.74" width="26.04" height="10"/><rect class="cls-1" x="375.98" width="42.32" height="10"/><rect class="cls-2" x="418.29" width="55.34" height="10"/><rect class="cls-3" x="473.63" width="91.15" height="10"/><rect class="cls-1" x="564.78" width="43.62" height="10"/><rect class="cls-2" x="608.4" width="22.14" height="10"/><rect class="cls-3" x="630.53" width="26.04" height="10"/><rect class="cls-1" x="175.78" width="39.45" height="10"/><rect class="cls-2" x="215.23" width="14.72" height="10"/><rect class="cls-3" x="229.95" width="9.42" height="10"/><rect class="cls-1" x="239.37" width="15.31" height="10"/><rect class="cls-2" x="254.68" width="20.02" height="10"/><rect class="cls-3" x="274.7" width="32.97" height="10"/><rect class="cls-1" x="307.67" width="15.78" height="10"/><rect class="cls-2" x="323.45" width="8.01" height="10"/><rect class="cls-3" x="331.46" width="9.42" height="10"/><rect class="cls-1" x="340.88" width="6.12" height="10"/><rect class="cls-2" x="347.01" width="8.01" height="10"/><rect class="cls-3" x="355.01" width="20.96" height="10"/><rect class="cls-1" x="775.56" width="25.15" height="10"/><rect class="cls-2" x="800.72" width="32.89" height="10"/><rect class="cls-3" x="833.61" width="54.17" height="10"/><rect class="cls-1" x="887.78" width="25.93" height="10"/><rect class="cls-2" x="913.71" width="13.16" height="10"/><rect class="cls-3" x="926.87" width="15.48" height="10"/><rect class="cls-1" x="942.34" width="10.06" height="10"/><rect class="cls-2" x="952.4" width="13.16" height="10"/><rect class="cls-3" x="965.56" width="34.44" height="10"/><rect class="cls-1" x="656.58" width="23.45" height="10"/><rect class="cls-2" x="680.02" width="8.75" height="10"/><rect class="cls-3" x="688.77" width="5.6" height="10"/><rect class="cls-1" x="694.37" width="9.1" height="10"/><rect class="cls-2" x="703.47" width="11.9" height="10"/><rect class="cls-3" x="715.37" width="19.6" height="10"/><rect class="cls-1" x="734.97" width="9.38" height="10"/><rect class="cls-2" x="744.35" width="4.76" height="10"/><rect class="cls-3" x="749.11" width="5.6" height="10"/><rect class="cls-1" x="754.71" width="3.64" height="10"/><rect class="cls-2" x="758.35" width="4.76" height="10"/><rect class="cls-3" x="763.11" width="12.46" height="10"/></g></g></svg>