<svg xmlns="http://www.w3.org/2000/svg" xmlns:xlink="http://www.w3.org/1999/xlink" viewBox="0 0 275 50.82"><defs><style>.cls-1{fill:#003175;}.cls-2{fill:#fff;}.cls-3{fill:url(#RGF_Blue_Gradation_1);}.cls-4{fill:#4d6470;}.cls-5{fill:#666;}</style><linearGradient id="RGF_Blue_Gradation_1" x1="127.41" y1="41.13" x2="136.55" y2="45.4" gradientUnits="userSpaceOnUse"><stop offset="0" stop-color="#54c2f0"/><stop offset="0.03" stop-color="#49b9eb"/><stop offset="0.12" stop-color="#219ada"/><stop offset="0.2" stop-color="#0987cf"/><stop offset="0.25" stop-color="#0080cb"/><stop offset="0.4" stop-color="#0068b6"/><stop offset="0.64" stop-color="#005bab"/><stop offset="1" stop-color="#004da0"/></linearGradient></defs><title>アセット 1</title><g id="レイヤー_2" data-name="レイヤー 2"><g id="レイヤー_1-2" data-name="レイヤー 1"><rect class="cls-1" width="50.82" height="50.82" rx="10.06" ry="10.06"/><path class="cls-2" d="M25.41,5A15.46,15.46,0,0,0,18.62,6.6V3.89H17.5V7.21A15.86,15.86,0,0,0,14.64,9.4V3.89H13.53v6.68a16.74,16.74,0,0,0,0,21.63V47.06h1.12V33.39a16,16,0,0,0,2.86,2.18V47.06h1.12V36.18a15.34,15.34,0,0,0,6.79,1.58A16.13,16.13,0,0,0,41.26,21.39,16.13,16.13,0,0,0,25.41,5M13.53,30.39a15.63,15.63,0,0,1,0-18ZM14.64,11A14.82,14.82,0,0,1,17.5,8.53V34.25a15,15,0,0,1-2.86-2.46Zm4-3.13a14.34,14.34,0,0,1,6.79-1.72A15,15,0,0,1,40.14,21.39,15,15,0,0,1,25.41,36.64a14.25,14.25,0,0,1-6.79-1.72Z"/><path class="cls-1" d="M124.82,31.63c-5.26,0-6.28-1.36-6.28-5.09V13h-4.41V11.38h4.41V6.63h1.73v4.75h5.53V13h-5.53V26.1c0,2.68,0,3.93,4.28,3.93"/><path class="cls-1" d="M151.48,21.86c0,6,1.7,8.17,7,8.17,1.63,0,6.07,0,6.28-4.75h1.76c-.51,5.87-5.22,6.34-8,6.34-6.28,0-8.72-2.81-8.72-10,0-6.41,1.56-10.48,8.58-10.48,8.18,0,8.18,5.7,8.18,10.75Zm13.26-1.59c.07-6.82-3.15-7.56-6.31-7.56-5.73,0-6.65,3.05-7,7.56Z"/><path class="cls-1" d="M197.93,16.87c-.07-1.8-.1-4.17-6-4.17-5.12,0-6,2-6,4.24,0,2.48,1.29,2.78,3.73,3.16l5.77.88c2.82.44,4.68,1.32,4.68,5,0,5.46-5.53,5.66-8.18,5.66-7.94,0-8-4.21-8-6.55h1.76c0,2.41,0,5,6.41,5,3.8,0,6.28-1,6.28-4.14,0-2.71-1.32-3.12-3.94-3.49l-5.22-.75c-2.24-.31-5-.85-5-4.75,0-2.71,1-5.8,7.8-5.8,7.6,0,7.63,4.14,7.63,5.77Z"/><path class="cls-1" d="M68.83,11.1c-4.55,0-5.63,1.87-6.45,3.22v-3H60.62V35.9h1.76V28.34C63,29.66,64,31.63,69,31.63c7.09,0,7.56-5.46,7.56-10.82,0-6.28-1.56-9.7-7.7-9.7m0,18.9c-4.15,0-6.14-1.46-6.41-7V20.08c.22-5.15,1.7-7.35,6.45-7.35,4.34,0,6,2.07,6,8.45,0,5.5-.81,8.82-6,8.82"/><path class="cls-1" d="M89.11,11.1c-4.41,0-7.8,1.26-7.87,6H83c0-3.77,2.78-4.44,5.94-4.44,4.1,0,5.9.64,5.9,4,0,2.85-.92,2.92-2.41,3l-6,.34c-4.78.27-5.94,3.26-5.94,6,0,5.16,4.31,5.6,7.46,5.6,5.22,0,6.33-1.78,6.89-2.89v2.62h1.7V17.45c0-3.53-.34-6.34-7.43-6.34M88,30.07c-3.8,0-5.73-.88-5.73-3.87,0-2.31.78-4.48,4.68-4.68L93,21.18a2.75,2.75,0,0,0,1.87-.71v3.46c0,3.22-.95,6.14-6.89,6.14"/><path class="cls-1" d="M109.74,11.1h-.48A6,6,0,0,0,103.86,14V11.38h-1.73v20h1.73V20.84c0-2.71.81-8.11,5.39-8.11h2.07V11.1h-1.58"/><path class="cls-1" d="M179.82,11.1h-.48A6.05,6.05,0,0,0,173.95,14V11.38h-1.73v20h1.73V20.84c0-2.71.81-8.11,5.39-8.11h2.07V11.1h-1.59"/><rect class="cls-1" x="124.55" y="30.04" width="1.25" height="1.59"/><path class="cls-1" d="M139.59,11.12l0,0c-3.61,0-5.64,0-7.43,2.57v-2.3h-1.76v20h1.76V19.86c.15-2.3.9-5.53,3.32-6.69a7.77,7.77,0,0,1,1.89-.43h.16c.38,0,.78-.06,1.21-.06,4.41,0,5.29,1.9,5.29,5.5v13.2h1.73V17.75c0-2.39,0-6.36-6.19-6.63"/><rect class="cls-1" x="269.78" y="6.63" width="1.73" height="3.1"/><rect class="cls-1" x="273.27" y="6.63" width="1.73" height="3.1"/><path class="cls-1" d="M214.29,12.83a25.77,25.77,0,0,0,1.49-3.11l.18-.44L214.09,9l0,.12a23.48,23.48,0,0,1-7.58,10.28l-.11.09,1,1.51.13-.1a24.75,24.75,0,0,0,5.74-6.29h9.31a22.91,22.91,0,0,1-4.66,9.76c-3,3.64-6.68,4.87-10.21,5.66l-.18,0,.75,1.77.13,0c3.39-.83,7.69-2.27,10.87-6.09A26.22,26.22,0,0,0,224.66,13l0-.18Z"/><rect class="cls-1" x="230.95" y="10.27" width="15.85" height="1.76"/><path class="cls-1" d="M229.28,16.47v1.74h17.07c-1.46,9.45-7.84,10.91-13.71,11.55l-.17,0,.44,1.84.13,0c8.27-.95,14-3.86,15.17-15l0-.17Z"/><path class="cls-1" d="M253,11.14v1.79h16.46c-.29,4-1.18,13.92-13.79,16.67l-.17,0,.61,1.75.13,0c5.89-1.23,10.13-4.32,12.61-9.17a28.16,28.16,0,0,0,2.61-10.88v-.16Z"/><path class="cls-3" d="M133.28,36.77c-2.51,0-6,1.53-6,6.33v5.31c0,1.22,3.41,1.22,3.41,0V42.92c0-2.25,1.42-3.95,3.41-4,1.57,0,2.84.77,2.84,3,0,.58,1.13.58,1.13,0C138.11,38.12,136,36.77,133.28,36.77Z"/><path class="cls-4" d="M141.51,49.05h-1.25c-.11,0-.15-.07-.2-.15l-1.47-2h-.14l-.91,0v2c0,.08-.08.15-.19.15h-1c-.11,0-.2-.07-.2-.15V43.8c0-.15.12-.2.33-.22a19.07,19.07,0,0,1,2-.1c1.57,0,2.94.41,2.94,1.68v.07c0,.79-.54,1.28-1.38,1.52l1.6,2.17C141.67,49,141.63,49.05,141.51,49.05ZM140,45.16c0-.56-.51-.79-1.53-.79l-.91,0v1.67l.91,0c1.05,0,1.53-.21,1.53-.86Z"/><path class="cls-4" d="M147,49a13.19,13.19,0,0,1-1.94.1c-1.33,0-2.36-.26-2.36-1.52V45c0-1.26,1-1.52,2.36-1.52a13.16,13.16,0,0,1,1.94.1c.15,0,.2.05.2.16v.48c0,.08-.09.15-.2.15h-2.08c-.59,0-.81.15-.81.64v.8h2.77c.11,0,.2.07.2.15v.53c0,.08-.09.15-.2.15H144.1v1c0,.49.21.64.81.64H147c.11,0,.2.07.2.15v.48C147.19,49,147.14,49,147,49Z"/><path class="cls-4" d="M152.77,49a10.41,10.41,0,0,1-1.61.12c-1.23,0-2.89-.44-2.89-2.27V45.75c0-1.86,1.66-2.27,2.89-2.27a10.53,10.53,0,0,1,1.61.12c.13,0,.23.07.23.17v.5c0,.1-.06.16-.23.16-.36,0-1.05-.06-1.59-.06-.86,0-1.48.33-1.48,1.39v1.09c0,1,.62,1.39,1.48,1.39.54,0,1.24,0,1.59-.06.16,0,.23.06.23.16v.5C153,48.93,152.9,49,152.77,49Z"/><path class="cls-4" d="M159.51,49.05h-1.25c-.11,0-.15-.07-.2-.15l-1.47-2h-.14l-.91,0v2c0,.08-.08.15-.19.15h-1c-.11,0-.2-.07-.2-.15V43.8c0-.15.12-.2.33-.22a19.08,19.08,0,0,1,2-.1c1.57,0,2.94.41,2.94,1.68v.07c0,.79-.54,1.28-1.38,1.52l1.6,2.17C159.66,49,159.62,49.05,159.51,49.05ZM158,45.16c0-.56-.51-.79-1.53-.79l-.91,0v1.67l.91,0c1.05,0,1.53-.21,1.53-.86Z"/><path class="cls-4" d="M165.54,49c-.36,0-1.64.13-2.27.13-1.64,0-2.79-.5-2.79-2.09V43.68c0-.08.09-.14.2-.14h1c.11,0,.2.06.2.14V47c0,.85.27,1.23,1.37,1.23.41,0,1,0,1.41-.06V43.68c0-.08.08-.14.19-.14h1c.11,0,.2.06.2.14v4.86C166.09,48.85,165.91,49,165.54,49Z"/><path class="cls-4" d="M168.74,49.05h-1c-.11,0-.2-.07-.2-.15V43.68c0-.08.09-.14.2-.14h1c.11,0,.2.06.2.14v5.23C168.94,49,168.85,49.05,168.74,49.05Z"/><path class="cls-4" d="M175.11,44.4h-1.79v4.51c0,.08-.09.15-.2.15h-1c-.11,0-.2-.07-.2-.15V44.4h-1.79c-.11,0-.2-.05-.2-.13v-.59c0-.08.09-.14.2-.14h5c.11,0,.2.06.2.14v.59C175.31,44.35,175.22,44.4,175.11,44.4Z"/><path class="cls-5" d="M60.73,43.85h2.57a1.57,1.57,0,0,1,1.15.45,1.69,1.69,0,0,1,.45,1.25,1.65,1.65,0,0,1-.42,1.22,1.6,1.6,0,0,1-1.19.42H61.47v2.15h-.74Zm.74.61v2.12h1.67a1,1,0,0,0,.71-.26,1,1,0,0,0,.29-.77,1.1,1.1,0,0,0-.26-.8,1,1,0,0,0-.74-.29Z"/><path class="cls-5" d="M66.78,43.82h2.69a1.44,1.44,0,0,1,1.06.42,1.81,1.81,0,0,1,0,2.31,1.12,1.12,0,0,1-.64.29l1.25,2.47h-.8l-1.15-2.37H67.52v2.37h-.74Zm.74.61v1.89h1.89A.74.74,0,0,0,70,46.1a1,1,0,0,0,.22-.71,1,1,0,0,0-.26-.71.83.83,0,0,0-.61-.26Z"/><path class="cls-5" d="M73.31,44.46a2.32,2.32,0,0,1,3.27,0,3.3,3.3,0,0,1,0,4.23,2.32,2.32,0,0,1-3.27,0,3.3,3.3,0,0,1,0-4.23Zm.55.42a2.92,2.92,0,0,0,0,3.4,1.48,1.48,0,0,0,2.18,0,2.92,2.92,0,0,0,0-3.4,1.48,1.48,0,0,0-2.18,0Z"/><path class="cls-5" d="M79.23,43.85h1.92a2.23,2.23,0,0,1,1.64.67,2.88,2.88,0,0,1,.71,2.12,2.82,2.82,0,0,1-.74,2.08,2.17,2.17,0,0,1-1.6.61H79.23Zm.74.61v4.27h1.15a1.35,1.35,0,0,0,1-.38,2.3,2.3,0,0,0,.61-1.7,2.35,2.35,0,0,0-.58-1.73,1.41,1.41,0,0,0-1-.45Z"/><path class="cls-5" d="M85.4,43.85h.74V47.7a1,1,0,0,0,.29.74,1.67,1.67,0,0,0,2.05,0,1,1,0,0,0,.29-.74V43.85h.74v3.88a1.56,1.56,0,0,1-.45,1.15,2.76,2.76,0,0,1-3.21,0,1.56,1.56,0,0,1-.45-1.15Z"/><path class="cls-5" d="M92.16,44.4a2.13,2.13,0,0,1,1.57-.61,2,2,0,0,1,1.51.55,2.11,2.11,0,0,1,.61,1.47h-.77a1.62,1.62,0,0,0-.42-1,1.27,1.27,0,0,0-.93-.38,1.41,1.41,0,0,0-1,.45,3,3,0,0,0,0,3.53,1.39,1.39,0,0,0,1,.42,1.34,1.34,0,0,0,1-.35,1.74,1.74,0,0,0,.45-1.28h.77a2.4,2.4,0,0,1-.64,1.7,2.43,2.43,0,0,1-3.14-.06,3,3,0,0,1-.8-2.18A3,3,0,0,1,92.16,44.4Z"/><path class="cls-5" d="M97.72,43.85h3.53v.61H98.46v1.7h2.6v.61h-2.6v2h3v.61H97.72Z"/><path class="cls-5" d="M103.2,43.85h1.92a2.23,2.23,0,0,1,1.64.67,2.88,2.88,0,0,1,.71,2.12,2.82,2.82,0,0,1-.74,2.08,2.17,2.17,0,0,1-1.6.61H103.2Zm.74.61v4.27h1.15a1.35,1.35,0,0,0,1-.38,2.3,2.3,0,0,0,.61-1.7,2.35,2.35,0,0,0-.58-1.73,1.41,1.41,0,0,0-1-.45Z"/><path class="cls-5" d="M112.66,43.85h2.57a1.44,1.44,0,0,1,1.06.42,1.39,1.39,0,0,1,.38,1,1.18,1.18,0,0,1-.35.87,1.21,1.21,0,0,1-.48.29,1.54,1.54,0,0,1,.61.35,1.31,1.31,0,0,1,.38,1,1.61,1.61,0,0,1-.48,1.19,1.57,1.57,0,0,1-1.15.39h-2.53Zm.74.61v1.7h1.73a.74.74,0,0,0,.55-.22.91.91,0,0,0,.26-.67.83.83,0,0,0-.26-.61.65.65,0,0,0-.48-.19Zm0,2.31v2H115a1,1,0,0,0,.74-.26,1,1,0,0,0,0-1.41,1,1,0,0,0-.77-.29Z"/><path class="cls-5" d="M118.23,43.85H119l1.57,2.5,1.57-2.5h.77l-2,3v2.44h-.74V46.9Z"/></g></g></svg>