<svg xmlns="http://www.w3.org/2000/svg" viewBox="0 0 288 264.49"><defs><style>.cls-1{isolation:isolate;}.cls-2,.cls-3,.cls-6{fill:none;}.cls-3,.cls-6{stroke:#003175;stroke-miterlimit:10;}.cls-3{stroke-width:0.41px;}.cls-4{fill:#eeeeef;mix-blend-mode:multiply;}.cls-5{fill:#003175;}.cls-6{stroke-width:1.38px;}</style></defs><title>アセット 16</title><g class="cls-1"><g id="レイヤー_2" data-name="レイヤー 2"><g id="レイヤー_3" data-name="レイヤー 3"><path class="cls-2" d="M231.79,156.74a87.74,87.74,0,1,1-6.92-34.26A87.74,87.74,0,0,1,231.79,156.74Z"/><circle class="cls-3" cx="143.78" cy="156.74" r="58.41"/><circle class="cls-4" cx="143.78" cy="58.41" r="58.41"/><path class="cls-5" d="M127.36,154.06a7.85,7.85,0,0,1-.86,3.85,6.49,6.49,0,0,0-.74-.41,7.67,7.67,0,0,0,.8-3.56Zm.58-3,1.25.09c0,.1-.09.18-.28.19v13.41h-1Zm2.27,4.78a16.08,16.08,0,0,0-1.06-2.17l.68-.34a11.92,11.92,0,0,1,1.09,2.08Zm5.18.19h4.12v.84h-9.13V156h4v-1.08h-2.88v-.77h2.88v-1h-3.47v-.8h3.47V151l1.33.09c0,.1-.09.18-.3.21v1H139v.8h-3.6v1h3v.77h-3Zm2.79,1.83v5.86c0,1-.38,1.06-2.43,1.06a3.36,3.36,0,0,0-.31-.86l1.08,0c.6,0,.68,0,.68-.24v-1.31H132.6v2.35h-1v-6.89Zm-1,.81H132.6v1.11h4.59Zm-4.59,3h4.59v-1.12H132.6Z"/><path class="cls-5" d="M150.9,153.41v1.65h3v.87H147v-.87h3v-1.65h-2.36v-.86H150v-1.49l1.21.07c0,.1-.09.18-.28.19v1.22h2.35v.86Zm.25,4.88a15,15,0,0,0,.89-2.2l1,.35c0,.09-.15.13-.31.13a16.65,16.65,0,0,1-.94,1.83h1.77v.87h-2.71V161h2.52v.87h-2.52v2.91H150v-2.91h-2.54V161H150v-1.71h-2.73v-.87h4.19Zm-2.42,0a7.68,7.68,0,0,0-.68-2l.77-.21a8.09,8.09,0,0,1,.71,2Zm10.83-1,.62.22a.58.58,0,0,1-.1.19,12.67,12.67,0,0,1-1.62,4.44,6.51,6.51,0,0,0,2.24,1.7,3.83,3.83,0,0,0-.69.86,7.14,7.14,0,0,1-2.12-1.73,7.76,7.76,0,0,1-1.73,1.61,3.23,3.23,0,0,0-.68-.66,7,7,0,0,0,1.8-1.74,12.15,12.15,0,0,1-1.67-3.5l.8-.21a11,11,0,0,0,1.4,2.86,11.1,11.1,0,0,0,1.16-3.13h-3.76v6.51h-.94v-13H160v3.7c0,1.06-.53,1.06-2.54,1.06a3.26,3.26,0,0,0-.3-.86h1c.81,0,.87,0,.87-.24v-2.77h-3.87v4.74h4.18Z"/><circle class="cls-4" cx="58.41" cy="206.08" r="58.41"/><circle class="cls-4" cx="229.59" cy="206.08" r="58.41"/><path class="cls-6" d="M173.44,239.63a88.43,88.43,0,0,1-59.33,0"/><polygon class="cls-5" points="171.27 236.75 178.04 237.84 173.71 243.16 171.27 236.75"/><polygon class="cls-5" points="116.29 236.75 109.52 237.84 113.85 243.16 116.29 236.75"/><path class="cls-6" d="M56.88,141.13A88.43,88.43,0,0,1,86.55,89.75"/><polygon class="cls-5" points="60.47 140.69 56.14 146.01 53.7 139.59 60.47 140.69"/><polygon class="cls-5" points="87.96 93.08 90.4 86.67 83.62 87.76 87.96 93.08"/><path class="cls-6" d="M230.12,141.13a88.43,88.43,0,0,0-29.66-51.38"/><polygon class="cls-5" points="233.3 139.59 230.86 146 226.53 140.69 233.3 139.59"/><polygon class="cls-5" points="203.38 87.76 196.6 86.67 199.04 93.08 203.38 87.76"/><path class="cls-5" d="M131.49,42.18c0,.13-.13.21-.33.24l0,.46c.17,2.22,1.12,9.58,7.13,12.31a3.51,3.51,0,0,0-.8.88c-4.26-2-6-6.31-6.76-9.57h0c-.66,3.2-2.29,7.3-6.56,9.55a3.85,3.85,0,0,0-.85-.8C129.83,52,129.88,44.2,130,42.07Z"/><path class="cls-5" d="M150.11,47.52c.57.52,2.14,2.21,2.51,2.65l-.69.9c-.33-.52-1.17-1.56-1.81-2.33v7.44h-1V48.1a17.86,17.86,0,0,1-2.68,5.09,5.6,5.6,0,0,0-.6-1A17,17,0,0,0,148.92,46h-2.74V45h2.92V41.55l1.34.09c0,.11-.11.19-.31.21V45h2.46v1h-2.46ZM160.77,45v1H159v8.65c0,1.43-.52,1.53-3.48,1.53a6.11,6.11,0,0,0-.39-1.14l1.72,0c1,0,1.09,0,1.09-.41V47.35a20.25,20.25,0,0,1-5,6.2,3.72,3.72,0,0,0-.73-.85A18.08,18.08,0,0,0,157.52,46H153V45h5V41.58l1.39.08c0,.13-.1.19-.32.22V45Z"/><path class="cls-5" d="M129.86,61.85a7.47,7.47,0,0,0,0,10.85v.06h-.71a7.8,7.8,0,0,1,0-11h.71Z"/><path class="cls-5" d="M138.78,71.06a23.51,23.51,0,0,0,2.48-.18c0,.26,0,.59,0,.85-.78.08-2,.13-2.44.13h-2.95c-1.78,0-2.64-.78-2.64-2.46V62.52l1.16.07c0,.12-.11.19-.32.21v3.84A36.06,36.06,0,0,0,140,64.31l.6.81a.28.28,0,0,1-.14,0,.41.41,0,0,1-.17,0,46,46,0,0,1-6.14,2.32v2c0,1.19.58,1.64,1.79,1.64Z"/><path class="cls-5" d="M151.06,68.4a42.64,42.64,0,0,0-4.14-1.92v5.9H146V62.13l1.19.07c0,.13-.11.21-.31.25v3.44l.18-.25a41.13,41.13,0,0,1,4.43,2Z"/><path class="cls-5" d="M154.17,72.7a7.47,7.47,0,0,0,0-10.85v-.06h.71a7.8,7.8,0,0,1,0,11h-.71Z"/><path class="cls-5" d="M44,191.89v.88H38v-.88Zm-.55,6.43V203h-3.8v.74h-.95v-5.38Zm-4.73-3.42V194h4.75v.87Zm0,2.14v-.87h4.75V197Zm4.7-7.25v.87h-4.6v-.87Zm-.91,9.43H39.67v2.84h2.85Zm3.81-8.51v1a4.67,4.67,0,0,1-2,4.16,4.14,4.14,0,0,0-.77-.71,3.78,3.78,0,0,0,1.81-3.47v-1.94h5v4c0,.35,0,.41.33.41h.88c.3,0,.35-.21.38-1.78a2.55,2.55,0,0,0,.9.39c-.08,1.86-.35,2.32-1.17,2.32H50.49c-.93,0-1.2-.28-1.2-1.32v-3Zm4.86,5.41.69.28a.35.35,0,0,1-.13.17A10,10,0,0,1,49,201.13a10,10,0,0,0,3.78,1.81,4.89,4.89,0,0,0-.69.91,10.82,10.82,0,0,1-3.89-2,12.06,12.06,0,0,1-4.1,2,3.41,3.41,0,0,0-.58-.93,11.26,11.26,0,0,0,3.91-1.83,10.86,10.86,0,0,1-2.33-3.66l.95-.3a9.31,9.31,0,0,0,2.18,3.29,9,9,0,0,0,2.22-3.33H44.24v-1H51Z"/><path class="cls-5" d="M62.46,194.93a18.35,18.35,0,0,1-1.66,2.52,8.83,8.83,0,0,0-.52-1,21.52,21.52,0,0,0,3.47-7.11l1.24.39c0,.11-.16.17-.36.17A31.05,31.05,0,0,1,63.42,193l.36.11c0,.11-.11.17-.3.2v10.56h-1Zm12.83-1.28v.95H66.09v2.49c0,2-.22,4.82-1.47,6.76a4,4,0,0,0-.79-.66c1.14-1.8,1.26-4.29,1.26-6.12v-3.42Zm-10.53-2.9h2.66v-1.4l1.29.09c0,.09-.09.17-.3.21v1.1h3.12v-1.4l1.31.09c0,.09-.09.17-.3.21v1.1h2.62v.95H72.55v1.37h-1V191.7H68.42v1.37h-1V191.7H64.76Zm10,5.14v6.92c0,1-.57,1.06-2.43,1.06a2.49,2.49,0,0,0-.3-.82l1,0c.71,0,.8,0,.8-.25v-1.58H71.35v2.54h-.9v-2.54H68v2.63H67.1v-8Zm-4.33.85H68v1.47h2.43ZM68,200.45h2.43V199H68Zm5.82-3.7H71.35v1.47h2.49Zm-2.49,3.7h2.49V199H71.35Z"/><path class="cls-5" d="M43.73,209.51a7.47,7.47,0,0,0,0,10.85v.06H43a7.8,7.8,0,0,1,0-11h.71Z"/><path class="cls-5" d="M50.22,215.05v2.66c0,.63.29,1.05,1.15,1.05h2.17a11.36,11.36,0,0,0,1.43-.08c0,.22,0,.62,0,.8a11.79,11.79,0,0,1-1.45.07H51.32c-1.44,0-1.95-.75-1.95-1.84v-2.66H46v-.78h3.37v-2.91H46.85v-.78h7.6v.78H50.22v2.91h5.34v.78Z"/><path class="cls-5" d="M67.17,210.43a.31.31,0,0,1-.33.14,18.54,18.54,0,0,1-8,9.4,3.77,3.77,0,0,0-.66-.63A17.29,17.29,0,0,0,66,210Z"/><path class="cls-5" d="M69.57,220.36a7.47,7.47,0,0,0,0-10.85v-.06h.71a7.8,7.8,0,0,1,0,11h-.71Z"/><path class="cls-5" d="M209.3,193.83c1.15-.3,2.82-.79,4.49-1.26l.13.85c-1.45.47-3,1-3.92,1.25a.32.32,0,0,1-.19.25Zm6,8.29a.35.35,0,0,1-.35.09,26.15,26.15,0,0,1-4.75,1.69c-.19-.21-.52-.58-.73-.77a19.45,19.45,0,0,0,4.68-1.58Zm-4.68-12.52a19.05,19.05,0,0,1,3.36,1.25l-.47.84a20.32,20.32,0,0,0-3.36-1.36Zm.85,11.73v-6.46H221.8v6.46Zm1-5.71v1.15h8.28v-1.15Zm0,1.88v1.17h8.28V197.5Zm0,1.89v1.2h8.28v-1.2Zm6.73-8.15c.38,1.29,1.29,2.49,4.59,3a3.18,3.18,0,0,0-.57.87c-2.77-.49-3.94-1.58-4.52-2.77-.57,1.2-1.7,2-4.15,2.49a2.58,2.58,0,0,0-.49-.76c2.63-.47,3.63-1.31,4-2.82h-1.81a8.91,8.91,0,0,1-1.45,1.4,2.76,2.76,0,0,0-.81-.54,7.09,7.09,0,0,0,2.44-2.9l1.18.17c0,.11-.11.17-.3.19a6.5,6.5,0,0,1-.47.84h5.74l.19,0,.63.08a8.54,8.54,0,0,1-1.66,2.38l-.85-.31a8,8,0,0,0,1-1.29Zm3.28,12.66a34.17,34.17,0,0,0-4.54-1.75l.87-.55a48.24,48.24,0,0,1,4.84,1.73Z"/><path class="cls-5" d="M239.61,198.36v4H246v.95H232.29v-.95h6.21v-4H233v-.95h5.5V195.2h-3.39v-.9a22.88,22.88,0,0,1-2.68,1.8,6.38,6.38,0,0,0-.66-.84,18.46,18.46,0,0,0,6.72-6.12l1.54.09a.37.37,0,0,1-.31.24,20.13,20.13,0,0,0,6.81,5.58,5.87,5.87,0,0,0-.71.93,22.31,22.31,0,0,1-6.76-5.74,18.18,18.18,0,0,1-3.86,4h7.93v1h-3.52v2.21h5.63v.95Zm-3.72,3.77a10.9,10.9,0,0,0-1.48-3l.87-.33a10.3,10.3,0,0,1,1.54,2.92Zm8.1-2.84c0,.09-.17.14-.35.13a23.6,23.6,0,0,1-1.81,2.74l-.79-.39a19,19,0,0,0,1.77-3Z"/><path class="cls-5" d="M214.43,209.51a7.47,7.47,0,0,0,0,10.85v.06h-.71a7.8,7.8,0,0,1,0-11h.71Z"/><path class="cls-5" d="M225.74,212.58a.41.41,0,0,1-.11.15c-.15,3.4-.48,5.53-.94,6.37a1.61,1.61,0,0,1-1.54.85,12.52,12.52,0,0,1-2.11-.27,4,4,0,0,0,0-.84,12.31,12.31,0,0,0,2.06.29.88.88,0,0,0,.91-.55,18,18,0,0,0,.77-5.35H221a10.78,10.78,0,0,1-3.89,6.76,4.12,4.12,0,0,0-.67-.52,9.75,9.75,0,0,0,3.68-6.24h-3.25v-.79h3.42a22.92,22.92,0,0,0,.27-2.57l1.17.09c0,.13-.12.2-.3.21-.07.86-.13,1.51-.26,2.26H225l.19-.07Z"/><path class="cls-5" d="M237.48,212.55a.26.26,0,0,1-.21.11,17.36,17.36,0,0,1-2.85,2.79l.19,0a.3.3,0,0,1-.26.17v4.49h-.84v-4.09a22.68,22.68,0,0,1-4.21,2.24c-.06-.08-.45-.57-.54-.66a18.16,18.16,0,0,0,7.18-4.71h-6v-.77h6.76l.13-.08Zm-1.95-.92a22.43,22.43,0,0,0-3.88-1.43l.39-.68a22,22,0,0,1,3.93,1.39Zm.08,3.79a24.39,24.39,0,0,1,3.44,2.17l-.6.64a23,23,0,0,0-3.38-2.22Z"/><path class="cls-5" d="M241.22,220.36a7.47,7.47,0,0,0,0-10.85v-.06h.71a7.8,7.8,0,0,1,0,11h-.71Z"/></g></g></g></svg>